<svg width="300" height="300" viewBox="0 0 300 300" fill="none" xmlns="http://www.w3.org/2000/svg">
<g clip-path="url(#clip0_1_2)">
<rect width="300" height="300" fill="white"/>
<rect width="300" height="300" fill="#E6E6E6"/>
<path d="M65.2959 163V157.96C66.6559 157.933 67.7093 157.88 68.4559 157.8C69.2293 157.693 69.7893 157.467 70.1359 157.12C70.4826 156.773 70.6826 156.227 70.7359 155.48C70.8159 154.733 70.8559 153.72 70.8559 152.44V135.48H77.8159V150.64C77.8159 153.013 77.7626 154.973 77.6559 156.52C77.5493 158.067 77.2826 159.28 76.8559 160.16C76.4559 161.04 75.8026 161.68 74.8959 162.08C74.0159 162.48 72.7893 162.733 71.2159 162.84C69.6693 162.947 67.6959 163 65.2959 163ZM93.5059 163.32C92.4393 163.32 91.2793 163.293 90.0259 163.24C88.7993 163.187 87.5859 163.107 86.3859 163C85.2126 162.893 84.1593 162.787 83.2259 162.68V157.52C84.2126 157.6 85.1993 157.68 86.1859 157.76C87.1993 157.84 88.1593 157.893 89.0659 157.92C89.9726 157.947 90.7326 157.96 91.3459 157.96C92.6259 157.96 93.5993 157.92 94.2659 157.84C94.9326 157.733 95.4259 157.587 95.7459 157.4C95.9593 157.213 96.1059 157.013 96.1859 156.8C96.2926 156.587 96.3593 156.333 96.3859 156.04C96.4126 155.747 96.4259 155.413 96.4259 155.04C96.4259 154.48 96.3859 154.04 96.3059 153.72C96.2526 153.373 96.1193 153.107 95.9059 152.92C95.7193 152.733 95.4259 152.6 95.0259 152.52C94.6259 152.413 94.1059 152.32 93.4659 152.24L87.8259 151.52C86.7326 151.387 85.8393 151.12 85.1459 150.72C84.4526 150.293 83.9059 149.733 83.5059 149.04C83.1059 148.347 82.8259 147.533 82.6659 146.6C82.5059 145.64 82.4259 144.573 82.4259 143.4C82.4259 141.587 82.6926 140.147 83.2259 139.08C83.7593 137.987 84.4926 137.16 85.4259 136.6C86.3859 136.013 87.4926 135.627 88.7459 135.44C90.0259 135.253 91.4126 135.16 92.9059 135.16C93.9726 135.16 95.0793 135.2 96.2259 135.28C97.3726 135.333 98.4526 135.427 99.4659 135.56C100.479 135.667 101.319 135.8 101.986 135.96V141C101.319 140.893 100.533 140.813 99.6259 140.76C98.7459 140.68 97.8259 140.627 96.8659 140.6C95.9059 140.547 94.9993 140.52 94.1459 140.52C93.1059 140.52 92.2793 140.56 91.6659 140.64C91.0526 140.693 90.5726 140.813 90.2259 141C89.8526 141.213 89.6126 141.493 89.5059 141.84C89.4259 142.187 89.3859 142.627 89.3859 143.16C89.3859 143.827 89.4393 144.347 89.5459 144.72C89.6526 145.067 89.8926 145.307 90.2659 145.44C90.6393 145.573 91.2126 145.693 91.9859 145.8L97.4659 146.44C98.2126 146.52 98.8926 146.653 99.5059 146.84C100.146 147.027 100.719 147.32 101.226 147.72C101.759 148.12 102.199 148.693 102.546 149.44C102.733 149.787 102.879 150.213 102.986 150.72C103.093 151.2 103.186 151.76 103.266 152.4C103.346 153.04 103.386 153.76 103.386 154.56C103.386 156.133 103.226 157.467 102.906 158.56C102.586 159.627 102.133 160.48 101.546 161.12C100.959 161.733 100.253 162.213 99.4259 162.56C98.5993 162.88 97.6793 163.08 96.6659 163.16C95.6793 163.267 94.6259 163.32 93.5059 163.32ZM108.074 163V135.48H121.314C123.074 135.48 124.501 135.693 125.594 136.12C126.688 136.52 127.528 137.12 128.114 137.92C128.701 138.693 129.101 139.653 129.314 140.8C129.528 141.947 129.634 143.267 129.634 144.76C129.634 146.12 129.528 147.373 129.314 148.52C129.128 149.64 128.741 150.613 128.154 151.44C127.594 152.267 126.754 152.907 125.634 153.36C124.514 153.813 123.034 154.04 121.194 154.04H115.034V163H108.074ZM115.034 148.76H118.514C119.474 148.76 120.221 148.707 120.754 148.6C121.314 148.493 121.728 148.307 121.994 148.04C122.261 147.747 122.434 147.347 122.514 146.84C122.594 146.307 122.634 145.613 122.634 144.76C122.634 143.907 122.594 143.213 122.514 142.68C122.461 142.147 122.301 141.747 122.034 141.48C121.768 141.187 121.368 141 120.834 140.92C120.301 140.813 119.568 140.76 118.634 140.76H115.034V148.76ZM153.975 163.32C152.908 163.32 151.748 163.293 150.495 163.24C149.268 163.187 148.055 163.107 146.855 163C145.681 162.893 144.628 162.787 143.695 162.68V157.52C144.681 157.6 145.668 157.68 146.655 157.76C147.668 157.84 148.628 157.893 149.535 157.92C150.441 157.947 151.201 157.96 151.815 157.96C153.095 157.96 154.068 157.92 154.735 157.84C155.401 157.733 155.895 157.587 156.215 157.4C156.428 157.213 156.575 157.013 156.655 156.8C156.761 156.587 156.828 156.333 156.855 156.04C156.881 155.747 156.895 155.413 156.895 155.04C156.895 154.48 156.855 154.04 156.775 153.72C156.721 153.373 156.588 153.107 156.375 152.92C156.188 152.733 155.895 152.6 155.495 152.52C155.095 152.413 154.575 152.32 153.935 152.24L148.295 151.52C147.201 151.387 146.308 151.12 145.615 150.72C144.921 150.293 144.375 149.733 143.975 149.04C143.575 148.347 143.295 147.533 143.135 146.6C142.975 145.64 142.895 144.573 142.895 143.4C142.895 141.587 143.161 140.147 143.695 139.08C144.228 137.987 144.961 137.16 145.895 136.6C146.855 136.013 147.961 135.627 149.215 135.44C150.495 135.253 151.881 135.16 153.375 135.16C154.441 135.16 155.548 135.2 156.695 135.28C157.841 135.333 158.921 135.427 159.935 135.56C160.948 135.667 161.788 135.8 162.455 135.96V141C161.788 140.893 161.001 140.813 160.095 140.76C159.215 140.68 158.295 140.627 157.335 140.6C156.375 140.547 155.468 140.52 154.615 140.52C153.575 140.52 152.748 140.56 152.135 140.64C151.521 140.693 151.041 140.813 150.695 141C150.321 141.213 150.081 141.493 149.975 141.84C149.895 142.187 149.855 142.627 149.855 143.16C149.855 143.827 149.908 144.347 150.015 144.72C150.121 145.067 150.361 145.307 150.735 145.44C151.108 145.573 151.681 145.693 152.455 145.8L157.935 146.44C158.681 146.52 159.361 146.653 159.975 146.84C160.615 147.027 161.188 147.32 161.695 147.72C162.228 148.12 162.668 148.693 163.015 149.44C163.201 149.787 163.348 150.213 163.455 150.72C163.561 151.2 163.655 151.76 163.735 152.4C163.815 153.04 163.855 153.76 163.855 154.56C163.855 156.133 163.695 157.467 163.375 158.56C163.055 159.627 162.601 160.48 162.015 161.12C161.428 161.733 160.721 162.213 159.895 162.56C159.068 162.88 158.148 163.08 157.135 163.16C156.148 163.267 155.095 163.32 153.975 163.32ZM168.183 163V133.28H174.583V144.96H174.943C175.343 144.293 175.823 143.773 176.383 143.4C176.97 143 177.623 142.72 178.343 142.56C179.063 142.4 179.85 142.32 180.703 142.32C182.063 142.32 183.143 142.493 183.943 142.84C184.77 143.16 185.396 143.653 185.823 144.32C186.25 144.987 186.53 145.813 186.663 146.8C186.823 147.787 186.903 148.933 186.903 150.24V163H180.463V152.2C180.463 151.107 180.436 150.253 180.383 149.64C180.33 149 180.21 148.533 180.023 148.24C179.836 147.947 179.543 147.773 179.143 147.72C178.77 147.64 178.263 147.6 177.623 147.6C176.956 147.6 176.41 147.68 175.983 147.84C175.583 147.973 175.276 148.213 175.063 148.56C174.876 148.907 174.743 149.4 174.663 150.04C174.61 150.653 174.583 151.427 174.583 152.36V163H168.183ZM200.776 163.32C198.963 163.32 197.456 163.213 196.256 163C195.056 162.787 194.109 162.44 193.416 161.96C192.723 161.48 192.216 160.84 191.896 160.04C191.576 159.24 191.363 158.24 191.256 157.04C191.176 155.84 191.136 154.413 191.136 152.76C191.136 151.107 191.176 149.693 191.256 148.52C191.363 147.32 191.576 146.32 191.896 145.52C192.216 144.72 192.723 144.08 193.416 143.6C194.109 143.12 195.056 142.787 196.256 142.6C197.456 142.387 198.963 142.28 200.776 142.28C202.616 142.28 204.136 142.387 205.336 142.6C206.536 142.787 207.483 143.12 208.176 143.6C208.869 144.08 209.376 144.72 209.696 145.52C210.016 146.32 210.216 147.32 210.296 148.52C210.403 149.693 210.456 151.107 210.456 152.76C210.456 154.413 210.403 155.84 210.296 157.04C210.216 158.24 210.016 159.24 209.696 160.04C209.376 160.84 208.869 161.48 208.176 161.96C207.483 162.44 206.536 162.787 205.336 163C204.136 163.213 202.616 163.32 200.776 163.32ZM200.776 158.44C201.576 158.44 202.203 158.387 202.656 158.28C203.109 158.173 203.429 157.933 203.616 157.56C203.803 157.187 203.909 156.613 203.936 155.84C203.989 155.067 204.016 154.04 204.016 152.76C204.016 151.48 203.989 150.467 203.936 149.72C203.909 148.973 203.803 148.413 203.616 148.04C203.429 147.667 203.109 147.427 202.656 147.32C202.203 147.213 201.576 147.16 200.776 147.16C199.976 147.16 199.349 147.213 198.896 147.32C198.469 147.427 198.163 147.667 197.976 148.04C197.789 148.413 197.669 148.973 197.616 149.72C197.589 150.467 197.576 151.48 197.576 152.76C197.576 154.04 197.589 155.067 197.616 155.84C197.669 156.613 197.789 157.187 197.976 157.56C198.163 157.933 198.469 158.173 198.896 158.28C199.349 158.387 199.976 158.44 200.776 158.44ZM214.746 170.96V142.6H220.826L220.986 145.08H221.346C221.772 144.307 222.279 143.72 222.866 143.32C223.479 142.92 224.159 142.653 224.906 142.52C225.652 142.36 226.399 142.28 227.146 142.28C228.346 142.28 229.359 142.44 230.186 142.76C231.039 143.08 231.732 143.64 232.266 144.44C232.826 145.213 233.226 146.28 233.466 147.64C233.732 149 233.866 150.707 233.866 152.76C233.866 154.787 233.732 156.48 233.466 157.84C233.226 159.2 232.839 160.28 232.306 161.08C231.772 161.88 231.079 162.453 230.226 162.8C229.399 163.147 228.386 163.32 227.186 163.32C226.412 163.32 225.666 163.253 224.946 163.12C224.226 162.987 223.572 162.747 222.986 162.4C222.426 162.027 221.932 161.507 221.506 160.84H221.146V170.96H214.746ZM224.266 158.04C224.986 158.04 225.559 157.987 225.986 157.88C226.412 157.773 226.719 157.56 226.906 157.24C227.119 156.893 227.252 156.373 227.306 155.68C227.386 154.987 227.426 154.027 227.426 152.8C227.426 151.573 227.386 150.613 227.306 149.92C227.252 149.2 227.119 148.68 226.906 148.36C226.719 148.013 226.412 147.8 225.986 147.72C225.559 147.613 224.986 147.56 224.266 147.56C223.492 147.56 222.892 147.667 222.466 147.88C222.066 148.067 221.759 148.4 221.546 148.88C221.386 149.307 221.279 149.853 221.226 150.52C221.172 151.16 221.146 151.92 221.146 152.8C221.146 153.707 221.172 154.48 221.226 155.12C221.279 155.76 221.372 156.267 221.506 156.64C221.719 157.173 222.039 157.547 222.466 157.76C222.892 157.947 223.492 158.04 224.266 158.04Z" fill="black"/>
<path d="M232.99 285.384C232.51 285.384 232.046 285.328 231.598 285.216C231.166 285.104 230.766 284.896 230.398 284.592C230.046 284.272 229.766 283.808 229.558 283.2C229.35 282.592 229.246 281.784 229.246 280.776L229.294 274.992H227.662V273C228.158 272.984 228.638 272.816 229.102 272.496C229.566 272.176 229.958 271.76 230.278 271.248C230.614 270.736 230.838 270.2 230.95 269.64H232.726L232.702 273H235.75V274.848L232.702 274.92L232.678 280.824C232.678 281.192 232.71 281.56 232.774 281.928C232.854 282.28 232.998 282.576 233.206 282.816C233.414 283.04 233.718 283.152 234.118 283.152C234.342 283.152 234.646 283.072 235.03 282.912C235.43 282.752 235.854 282.352 236.302 281.712L237.454 282.792C237.022 283.432 236.574 283.928 236.11 284.28C235.646 284.632 235.198 284.888 234.766 285.048C234.35 285.208 233.982 285.304 233.662 285.336C233.342 285.368 233.118 285.384 232.99 285.384ZM243.84 285.384C242.672 285.384 241.64 285.128 240.744 284.616C239.848 284.088 239.152 283.352 238.656 282.408C238.16 281.448 237.912 280.32 237.912 279.024C237.912 277.904 238.16 276.856 238.656 275.88C239.152 274.904 239.848 274.12 240.744 273.528C241.656 272.92 242.712 272.616 243.912 272.616C244.584 272.616 245.24 272.712 245.88 272.904C246.52 273.08 247.096 273.392 247.608 273.84C248.136 274.288 248.552 274.896 248.856 275.664C249.176 276.432 249.328 277.392 249.312 278.544L241.44 278.688C241.44 279.552 241.544 280.328 241.752 281.016C241.976 281.704 242.336 282.248 242.832 282.648C243.328 283.048 243.992 283.248 244.824 283.248C245.144 283.248 245.504 283.192 245.904 283.08C246.32 282.968 246.736 282.784 247.152 282.528C247.584 282.256 247.984 281.896 248.352 281.448L249.432 282.456C248.856 283.272 248.24 283.896 247.584 284.328C246.928 284.744 246.272 285.024 245.616 285.168C244.976 285.312 244.384 285.384 243.84 285.384ZM241.584 277.008H246C245.984 276.336 245.888 275.808 245.712 275.424C245.552 275.024 245.328 274.736 245.04 274.56C244.752 274.384 244.416 274.296 244.032 274.296C243.328 274.296 242.776 274.552 242.376 275.064C241.976 275.56 241.712 276.208 241.584 277.008ZM257.738 285C257.706 284.776 257.682 284.592 257.666 284.448C257.666 284.288 257.658 284.104 257.642 283.896C257.098 284.44 256.522 284.824 255.914 285.048C255.306 285.272 254.69 285.384 254.066 285.384C253.042 285.384 252.242 285.08 251.666 284.472C251.09 283.864 250.802 283.104 250.802 282.192C250.802 281.424 250.994 280.768 251.378 280.224C251.778 279.68 252.298 279.24 252.938 278.904C253.594 278.552 254.314 278.288 255.098 278.112C255.898 277.92 256.698 277.808 257.498 277.776V276.528C257.498 276.112 257.442 275.736 257.33 275.4C257.234 275.064 257.058 274.8 256.802 274.608C256.562 274.416 256.218 274.328 255.77 274.344C255.466 274.36 255.17 274.424 254.882 274.536C254.594 274.648 254.346 274.808 254.138 275.016C254.266 275.16 254.346 275.32 254.378 275.496C254.41 275.656 254.426 275.8 254.426 275.928C254.426 276.248 254.298 276.584 254.042 276.936C253.786 277.272 253.378 277.432 252.818 277.416C252.338 277.4 251.97 277.232 251.714 276.912C251.458 276.592 251.33 276.216 251.33 275.784C251.33 275.144 251.554 274.592 252.002 274.128C252.466 273.648 253.082 273.28 253.85 273.024C254.618 272.752 255.466 272.616 256.394 272.616C257.802 272.616 258.89 272.984 259.658 273.72C260.442 274.44 260.834 275.6 260.834 277.2C260.834 277.744 260.834 278.208 260.834 278.592C260.834 278.976 260.826 279.36 260.81 279.744C260.81 280.128 260.81 280.592 260.81 281.136C260.81 281.36 260.802 281.68 260.786 282.096C260.77 282.496 260.746 282.88 260.714 283.248C260.986 283.216 261.274 283.2 261.578 283.2C261.882 283.184 262.114 283.176 262.274 283.176V285H257.738ZM257.474 279.48C257.026 279.528 256.602 279.608 256.202 279.72C255.802 279.832 255.45 279.984 255.146 280.176C254.858 280.368 254.626 280.6 254.45 280.872C254.29 281.144 254.21 281.448 254.21 281.784C254.226 282.232 254.37 282.552 254.642 282.744C254.914 282.936 255.226 283.032 255.578 283.032C255.946 283.032 256.29 282.952 256.61 282.792C256.93 282.632 257.218 282.424 257.474 282.168C257.474 282.008 257.474 281.856 257.474 281.712C257.474 281.552 257.474 281.392 257.474 281.232C257.474 280.944 257.474 280.656 257.474 280.368C257.474 280.064 257.474 279.768 257.474 279.48ZM263.652 285V283.44C264.1 283.44 264.42 283.352 264.612 283.176C264.804 283 264.924 282.752 264.972 282.432C265.036 282.096 265.068 281.72 265.068 281.304V277.272C265.068 276.984 265.076 276.664 265.092 276.312C265.108 275.944 265.132 275.584 265.164 275.232C264.908 275.248 264.604 275.264 264.252 275.28C263.916 275.28 263.66 275.288 263.484 275.304V273.48C264.22 273.48 264.844 273.44 265.356 273.36C265.868 273.28 266.268 273.184 266.556 273.072C266.86 272.96 267.068 272.856 267.18 272.76H268.356C268.388 272.92 268.404 273.12 268.404 273.36C268.42 273.6 268.436 273.8 268.452 273.96C268.996 273.544 269.58 273.216 270.204 272.976C270.844 272.736 271.444 272.616 272.004 272.616C272.74 272.616 273.348 272.752 273.828 273.024C274.308 273.28 274.692 273.672 274.98 274.2C275.556 273.72 276.188 273.336 276.876 273.048C277.58 272.76 278.252 272.616 278.892 272.616C280.188 272.616 281.164 272.992 281.82 273.744C282.492 274.48 282.828 275.768 282.828 277.608V281.136C282.828 281.36 282.82 281.68 282.804 282.096C282.788 282.496 282.764 282.88 282.732 283.248C282.988 283.216 283.268 283.2 283.572 283.2C283.892 283.184 284.132 283.176 284.292 283.176V285H278.22V283.44C278.588 283.44 278.852 283.352 279.012 283.176C279.188 283 279.3 282.752 279.348 282.432C279.396 282.096 279.42 281.72 279.42 281.304V277.632C279.404 276.592 279.228 275.872 278.892 275.472C278.572 275.072 278.14 274.864 277.596 274.848C277.18 274.832 276.788 274.904 276.42 275.064C276.068 275.224 275.748 275.416 275.46 275.64C275.54 275.96 275.596 276.312 275.628 276.696C275.66 277.08 275.676 277.488 275.676 277.92C275.676 278.464 275.676 279 275.676 279.528C275.676 280.056 275.676 280.592 275.676 281.136C275.676 281.36 275.668 281.68 275.652 282.096C275.636 282.496 275.612 282.88 275.58 283.248C275.836 283.216 276.116 283.2 276.42 283.2C276.724 283.184 276.964 283.176 277.14 283.176V285H270.948V283.44C271.364 283.44 271.66 283.352 271.836 283.176C272.028 283 272.148 282.752 272.196 282.432C272.244 282.096 272.268 281.72 272.268 281.304L272.244 277.56C272.244 276.52 272.092 275.808 271.788 275.424C271.484 275.04 271.06 274.84 270.516 274.824C270.116 274.824 269.74 274.912 269.388 275.088C269.052 275.264 268.748 275.472 268.476 275.712C268.476 275.92 268.476 276.12 268.476 276.312C268.476 276.504 268.476 276.704 268.476 276.912V281.136C268.476 281.36 268.468 281.68 268.452 282.096C268.436 282.496 268.412 282.88 268.38 283.248C268.636 283.216 268.9 283.2 269.172 283.2C269.444 283.184 269.66 283.176 269.82 283.176V285H263.652Z" fill="black"/>
</g>
<rect x="0.5" y="0.5" width="299" height="299" stroke="#878787"/>
<defs>
<clipPath id="clip0_1_2">
<rect width="300" height="300" fill="white"/>
</clipPath>
</defs>
</svg>
