<svg width="300" height="300" viewBox="0 0 300 300" fill="none" xmlns="http://www.w3.org/2000/svg">
<g clip-path="url(#clip0_1_3)">
<rect width="300" height="300" fill="white"/>
<rect width="300" height="300" fill="white"/>
<path d="M49.2639 151.08V155.6H41.8239V179H36.2239V155.6H28.7839V151.08H49.2639ZM58.9498 160.28C59.6698 159.107 60.6032 158.187 61.7498 157.52C62.9232 156.853 64.2565 156.52 65.7498 156.52V162.4H64.2698C62.5098 162.4 61.1765 162.813 60.2698 163.64C59.3898 164.467 58.9498 165.907 58.9498 167.96V179H53.3498V156.84H58.9498V160.28ZM68.0817 167.84C68.0817 165.6 68.5217 163.613 69.4017 161.88C70.3084 160.147 71.5217 158.813 73.0417 157.88C74.5884 156.947 76.3084 156.48 78.2017 156.48C79.8551 156.48 81.2951 156.813 82.5217 157.48C83.7751 158.147 84.7751 158.987 85.5217 160V156.84H91.1617V179H85.5217V175.76C84.8017 176.8 83.8017 177.667 82.5217 178.36C81.2684 179.027 79.8151 179.36 78.1617 179.36C76.2951 179.36 74.5884 178.88 73.0417 177.92C71.5217 176.96 70.3084 175.613 69.4017 173.88C68.5217 172.12 68.0817 170.107 68.0817 167.84ZM85.5217 167.92C85.5217 166.56 85.2551 165.4 84.7217 164.44C84.1884 163.453 83.4684 162.707 82.5617 162.2C81.6551 161.667 80.6817 161.4 79.6417 161.4C78.6017 161.4 77.6417 161.653 76.7617 162.16C75.8817 162.667 75.1617 163.413 74.6017 164.4C74.0684 165.36 73.8017 166.507 73.8017 167.84C73.8017 169.173 74.0684 170.347 74.6017 171.36C75.1617 172.347 75.8817 173.107 76.7617 173.64C77.6684 174.173 78.6284 174.44 79.6417 174.44C80.6817 174.44 81.6551 174.187 82.5617 173.68C83.4684 173.147 84.1884 172.4 84.7217 171.44C85.2551 170.453 85.5217 169.28 85.5217 167.92ZM105.871 173.84L111.471 156.84H117.431L109.231 179H102.431L94.2711 156.84H100.271L105.871 173.84ZM141.176 167.44C141.176 168.24 141.123 168.96 141.016 169.6H124.816C124.95 171.2 125.51 172.453 126.496 173.36C127.483 174.267 128.696 174.72 130.136 174.72C132.216 174.72 133.696 173.827 134.576 172.04H140.616C139.976 174.173 138.75 175.933 136.936 177.32C135.123 178.68 132.896 179.36 130.256 179.36C128.123 179.36 126.203 178.893 124.496 177.96C122.816 177 121.496 175.653 120.536 173.92C119.603 172.187 119.136 170.187 119.136 167.92C119.136 165.627 119.603 163.613 120.536 161.88C121.47 160.147 122.776 158.813 124.456 157.88C126.136 156.947 128.07 156.48 130.256 156.48C132.363 156.48 134.243 156.933 135.896 157.84C137.576 158.747 138.87 160.04 139.776 161.72C140.71 163.373 141.176 165.28 141.176 167.44ZM135.376 165.84C135.35 164.4 134.83 163.253 133.816 162.4C132.803 161.52 131.563 161.08 130.096 161.08C128.71 161.08 127.536 161.507 126.576 162.36C125.643 163.187 125.07 164.347 124.856 165.84H135.376ZM150.864 149.4V179H145.264V149.4H150.864Z" fill="black"/>
<path d="M154.957 167.84C154.957 165.6 155.397 163.613 156.277 161.88C157.183 160.147 158.397 158.813 159.917 157.88C161.463 156.947 163.183 156.48 165.077 156.48C166.73 156.48 168.17 156.813 169.397 157.48C170.65 158.147 171.65 158.987 172.397 160V156.84H178.037V179H172.397V175.76C171.677 176.8 170.677 177.667 169.397 178.36C168.143 179.027 166.69 179.36 165.037 179.36C163.17 179.36 161.463 178.88 159.917 177.92C158.397 176.96 157.183 175.613 156.277 173.88C155.397 172.12 154.957 170.107 154.957 167.84ZM172.397 167.92C172.397 166.56 172.13 165.4 171.597 164.44C171.063 163.453 170.343 162.707 169.437 162.2C168.53 161.667 167.557 161.4 166.517 161.4C165.477 161.4 164.517 161.653 163.637 162.16C162.757 162.667 162.037 163.413 161.477 164.4C160.943 165.36 160.677 166.507 160.677 167.84C160.677 169.173 160.943 170.347 161.477 171.36C162.037 172.347 162.757 173.107 163.637 173.64C164.543 174.173 165.503 174.44 166.517 174.44C167.557 174.44 168.53 174.187 169.437 173.68C170.343 173.147 171.063 172.4 171.597 171.44C172.13 170.453 172.397 169.28 172.397 167.92ZM195.786 156.52C198.426 156.52 200.559 157.36 202.186 159.04C203.813 160.693 204.626 163.013 204.626 166V179H199.026V166.76C199.026 165 198.586 163.653 197.706 162.72C196.826 161.76 195.626 161.28 194.106 161.28C192.559 161.28 191.333 161.76 190.426 162.72C189.546 163.653 189.106 165 189.106 166.76V179H183.506V156.84H189.106V159.6C189.853 158.64 190.799 157.893 191.946 157.36C193.119 156.8 194.399 156.52 195.786 156.52ZM222.231 156.52C224.871 156.52 227.005 157.36 228.631 159.04C230.258 160.693 231.071 163.013 231.071 166V179H225.471V166.76C225.471 165 225.031 163.653 224.151 162.72C223.271 161.76 222.071 161.28 220.551 161.28C219.005 161.28 217.778 161.76 216.871 162.72C215.991 163.653 215.551 165 215.551 166.76V179H209.951V156.84H215.551V159.6C216.298 158.64 217.245 157.893 218.391 157.36C219.565 156.8 220.845 156.52 222.231 156.52ZM256.997 167.44C256.997 168.24 256.943 168.96 256.837 169.6H240.637C240.77 171.2 241.33 172.453 242.317 173.36C243.303 174.267 244.517 174.72 245.957 174.72C248.037 174.72 249.517 173.827 250.397 172.04H256.437C255.797 174.173 254.57 175.933 252.757 177.32C250.943 178.68 248.717 179.36 246.077 179.36C243.943 179.36 242.023 178.893 240.317 177.96C238.637 177 237.317 175.653 236.357 173.92C235.423 172.187 234.957 170.187 234.957 167.92C234.957 165.627 235.423 163.613 236.357 161.88C237.29 160.147 238.597 158.813 240.277 157.88C241.957 156.947 243.89 156.48 246.077 156.48C248.183 156.48 250.063 156.933 251.717 157.84C253.397 158.747 254.69 160.04 255.597 161.72C256.53 163.373 256.997 165.28 256.997 167.44ZM251.197 165.84C251.17 164.4 250.65 163.253 249.637 162.4C248.623 161.52 247.383 161.08 245.917 161.08C244.53 161.08 243.357 161.507 242.397 162.36C241.463 163.187 240.89 164.347 240.677 165.84H251.197ZM266.684 160.28C267.404 159.107 268.338 158.187 269.484 157.52C270.658 156.853 271.991 156.52 273.484 156.52V162.4H272.004C270.244 162.4 268.911 162.813 268.004 163.64C267.124 164.467 266.684 165.907 266.684 167.96V179H261.084V156.84H266.684V160.28Z" fill="#5779F4"/>
<path d="M182.272 118.37V142.072H211.266V130.221V118.37H182.272Z" stroke="#5779F4"/>
<path d="M186.733 116V122.625M191.751 116V122.625M196.769 116V122.625M201.787 116V122.625M206.805 116V122.625M186.733 125.481H206.805V132.591H197.354H186.733V125.481Z" stroke="#5779F4"/>
<path d="M92.0694 123.381C92.4739 123.381 93.267 123.544 93.6445 123.334C93.989 123.143 94.6139 123.059 95.0013 123C95.8858 122.865 96.1462 122.151 96.8289 121.595C97.1578 121.328 97.3258 121.093 97.7363 121.026C98.199 120.951 98.6688 120.949 99.123 120.848C99.9889 120.656 100.959 120.799 101.794 120.446C103.789 119.603 105.89 119.446 107.94 118.89C108.424 118.759 109.016 118.869 109.511 118.869C109.886 118.869 110.35 118.779 110.709 118.916C111.405 119.181 111.987 119.61 112.657 119.924C112.959 120.066 113.215 120.324 113.491 120.514C113.828 120.745 114.144 120.873 114.489 121.083C114.796 121.271 115.028 121.423 115.028 121.877C115.028 122.361 115.182 122.797 115.182 123.287C115.182 124.279 115.839 124.312 116.299 124.985C116.633 125.474 116.068 126.7 115.798 127.048C115.281 127.716 115.014 128.95 114.797 129.811C114.591 130.628 113.772 131.012 113.47 131.749C113.147 132.538 112.554 133.136 112.254 133.958C111.85 135.07 110.774 135.466 109.9 135.65C109.242 135.789 108.64 135.825 108 136.094C107.559 136.28 107.088 136.547 106.707 136.804C105.573 137.573 104.086 137.578 102.855 138C102.235 138.213 101.631 138.462 101.023 138.726C100.767 138.838 100.494 139.235 100.236 139.27C99.8736 139.319 99.5424 139.552 99.153 139.552C98.5258 139.552 97.9031 139.646 97.2698 139.646C96.014 139.646 94.702 139.771 93.4562 139.573C93.1953 139.531 92.9304 139.364 92.6772 139.364C92.2706 139.364 91.864 139.364 91.4574 139.364C90.9567 139.364 90.4086 139.282 89.9123 139.369C89.2059 139.492 89.1833 140.15 88.9278 140.774C88.6533 141.444 88.078 141.691 87.4854 141.803C86.6921 141.952 86.2502 140.923 85.8718 140.231C85.5484 139.639 85.0847 139.258 84.7205 138.711C84.3739 138.19 83.5397 137.954 83.0598 137.624C82.1808 137.021 81.838 135.143 82.0711 134.005C82.1991 133.38 82.8867 132.361 83.2866 131.984C83.798 131.501 84.305 130.986 84.7547 130.438C85.475 129.559 86.3036 128.676 86.8306 127.591C87.0725 127.093 87.1831 126.423 87.4854 125.972C87.8357 125.45 88.1847 125.235 88.6796 124.933C89.673 124.327 90.4942 123.523 91.6072 123.267C92.3279 123.101 92.7227 123.114 93.3791 123.381" stroke="black" stroke-linecap="round"/>
<path d="M121.107 123.75C121.269 122.956 120.833 122.506 120.524 121.935C120.396 121.846 120.473 121.481 120.272 121.465C119.968 121.44 119.852 121.558 119.852 121.987C119.852 122.401 119.726 123.267 119.955 123.554C120.11 123.75 120.986 124.342 121.107 123.75Z" stroke="black" stroke-width="0.5" stroke-linecap="round"/>
<path d="M88.4495 144.898C88.2452 144.89 87.9607 144.925 87.9456 144.545C87.9347 144.27 87.9721 144.12 88.1929 144.081C88.5545 144.018 88.6649 144.348 88.3655 144.663" stroke="black" stroke-width="0.5" stroke-linecap="round"/>
<path d="M145.834 128.904L153.922 138H156.97L148.09 128.04C147.546 127.416 147.058 126.864 146.626 126.384C146.21 125.888 146.002 125.384 146.002 124.872C146.002 124.344 146.162 123.912 146.482 123.576C146.818 123.224 147.29 123.048 147.898 123.048C148.298 123.048 148.634 123.136 148.906 123.312C149.178 123.472 149.386 123.688 149.53 123.96C149.69 124.232 149.77 124.544 149.77 124.896C149.77 125.392 149.522 125.912 149.026 126.456C148.53 126.984 147.834 127.488 146.938 127.968C146.602 128.128 146.194 128.312 145.714 128.52C145.25 128.728 144.77 128.976 144.274 129.264C143.778 129.536 143.314 129.872 142.882 130.272C142.466 130.672 142.122 131.144 141.85 131.688C141.578 132.216 141.442 132.84 141.442 133.56C141.442 134.536 141.698 135.376 142.21 136.08C142.738 136.784 143.426 137.328 144.274 137.712C145.122 138.08 146.034 138.264 147.01 138.264C148.13 138.264 149.162 138.064 150.106 137.664C151.05 137.264 151.922 136.744 152.722 136.104C153.522 135.448 154.258 134.72 154.93 133.92C155.618 133.104 156.258 132.288 156.85 131.472L154.978 130.176C154.434 130.944 153.866 131.68 153.274 132.384C152.682 133.072 152.066 133.688 151.426 134.232C150.786 134.76 150.122 135.184 149.434 135.504C148.746 135.824 148.034 135.984 147.298 135.984C146.69 135.984 146.154 135.88 145.69 135.672C145.226 135.448 144.858 135.136 144.586 134.736C144.314 134.336 144.178 133.88 144.178 133.368C144.178 132.808 144.314 132.336 144.586 131.952C144.874 131.552 145.242 131.208 145.69 130.92C146.138 130.632 146.61 130.368 147.106 130.128C147.602 129.888 148.066 129.632 148.498 129.36C149.106 128.992 149.642 128.632 150.106 128.28C150.57 127.928 150.962 127.568 151.282 127.2C151.602 126.832 151.842 126.448 152.002 126.048C152.178 125.648 152.266 125.216 152.266 124.752C152.266 124.08 152.09 123.456 151.738 122.88C151.402 122.288 150.906 121.808 150.25 121.44C149.61 121.072 148.826 120.888 147.898 120.888C147.002 120.888 146.21 121.056 145.522 121.392C144.85 121.728 144.322 122.192 143.938 122.784C143.57 123.376 143.386 124.04 143.386 124.776C143.386 125.368 143.522 125.912 143.794 126.408C144.082 126.904 144.418 127.36 144.802 127.776C145.186 128.176 145.53 128.552 145.834 128.904Z" fill="black"/>
<path d="M236.99 284.384C236.51 284.384 236.046 284.328 235.598 284.216C235.166 284.104 234.766 283.896 234.398 283.592C234.046 283.272 233.766 282.808 233.558 282.2C233.35 281.592 233.246 280.784 233.246 279.776L233.294 273.992H231.662V272C232.158 271.984 232.638 271.816 233.102 271.496C233.566 271.176 233.958 270.76 234.278 270.248C234.614 269.736 234.838 269.2 234.95 268.64H236.726L236.702 272H239.75V273.848L236.702 273.92L236.678 279.824C236.678 280.192 236.71 280.56 236.774 280.928C236.854 281.28 236.998 281.576 237.206 281.816C237.414 282.04 237.718 282.152 238.118 282.152C238.342 282.152 238.646 282.072 239.03 281.912C239.43 281.752 239.854 281.352 240.302 280.712L241.454 281.792C241.022 282.432 240.574 282.928 240.11 283.28C239.646 283.632 239.198 283.888 238.766 284.048C238.35 284.208 237.982 284.304 237.662 284.336C237.342 284.368 237.118 284.384 236.99 284.384ZM247.84 284.384C246.672 284.384 245.64 284.128 244.744 283.616C243.848 283.088 243.152 282.352 242.656 281.408C242.16 280.448 241.912 279.32 241.912 278.024C241.912 276.904 242.16 275.856 242.656 274.88C243.152 273.904 243.848 273.12 244.744 272.528C245.656 271.92 246.712 271.616 247.912 271.616C248.584 271.616 249.24 271.712 249.88 271.904C250.52 272.08 251.096 272.392 251.608 272.84C252.136 273.288 252.552 273.896 252.856 274.664C253.176 275.432 253.328 276.392 253.312 277.544L245.44 277.688C245.44 278.552 245.544 279.328 245.752 280.016C245.976 280.704 246.336 281.248 246.832 281.648C247.328 282.048 247.992 282.248 248.824 282.248C249.144 282.248 249.504 282.192 249.904 282.08C250.32 281.968 250.736 281.784 251.152 281.528C251.584 281.256 251.984 280.896 252.352 280.448L253.432 281.456C252.856 282.272 252.24 282.896 251.584 283.328C250.928 283.744 250.272 284.024 249.616 284.168C248.976 284.312 248.384 284.384 247.84 284.384ZM245.584 276.008H250C249.984 275.336 249.888 274.808 249.712 274.424C249.552 274.024 249.328 273.736 249.04 273.56C248.752 273.384 248.416 273.296 248.032 273.296C247.328 273.296 246.776 273.552 246.376 274.064C245.976 274.56 245.712 275.208 245.584 276.008ZM261.738 284C261.706 283.776 261.682 283.592 261.666 283.448C261.666 283.288 261.658 283.104 261.642 282.896C261.098 283.44 260.522 283.824 259.914 284.048C259.306 284.272 258.69 284.384 258.066 284.384C257.042 284.384 256.242 284.08 255.666 283.472C255.09 282.864 254.802 282.104 254.802 281.192C254.802 280.424 254.994 279.768 255.378 279.224C255.778 278.68 256.298 278.24 256.938 277.904C257.594 277.552 258.314 277.288 259.098 277.112C259.898 276.92 260.698 276.808 261.498 276.776V275.528C261.498 275.112 261.442 274.736 261.33 274.4C261.234 274.064 261.058 273.8 260.802 273.608C260.562 273.416 260.218 273.328 259.77 273.344C259.466 273.36 259.17 273.424 258.882 273.536C258.594 273.648 258.346 273.808 258.138 274.016C258.266 274.16 258.346 274.32 258.378 274.496C258.41 274.656 258.426 274.8 258.426 274.928C258.426 275.248 258.298 275.584 258.042 275.936C257.786 276.272 257.378 276.432 256.818 276.416C256.338 276.4 255.97 276.232 255.714 275.912C255.458 275.592 255.33 275.216 255.33 274.784C255.33 274.144 255.554 273.592 256.002 273.128C256.466 272.648 257.082 272.28 257.85 272.024C258.618 271.752 259.466 271.616 260.394 271.616C261.802 271.616 262.89 271.984 263.658 272.72C264.442 273.44 264.834 274.6 264.834 276.2C264.834 276.744 264.834 277.208 264.834 277.592C264.834 277.976 264.826 278.36 264.81 278.744C264.81 279.128 264.81 279.592 264.81 280.136C264.81 280.36 264.802 280.68 264.786 281.096C264.77 281.496 264.746 281.88 264.714 282.248C264.986 282.216 265.274 282.2 265.578 282.2C265.882 282.184 266.114 282.176 266.274 282.176V284H261.738ZM261.474 278.48C261.026 278.528 260.602 278.608 260.202 278.72C259.802 278.832 259.45 278.984 259.146 279.176C258.858 279.368 258.626 279.6 258.45 279.872C258.29 280.144 258.21 280.448 258.21 280.784C258.226 281.232 258.37 281.552 258.642 281.744C258.914 281.936 259.226 282.032 259.578 282.032C259.946 282.032 260.29 281.952 260.61 281.792C260.93 281.632 261.218 281.424 261.474 281.168C261.474 281.008 261.474 280.856 261.474 280.712C261.474 280.552 261.474 280.392 261.474 280.232C261.474 279.944 261.474 279.656 261.474 279.368C261.474 279.064 261.474 278.768 261.474 278.48ZM267.652 284V282.44C268.1 282.44 268.42 282.352 268.612 282.176C268.804 282 268.924 281.752 268.972 281.432C269.036 281.096 269.068 280.72 269.068 280.304V276.272C269.068 275.984 269.076 275.664 269.092 275.312C269.108 274.944 269.132 274.584 269.164 274.232C268.908 274.248 268.604 274.264 268.252 274.28C267.916 274.28 267.66 274.288 267.484 274.304V272.48C268.22 272.48 268.844 272.44 269.356 272.36C269.868 272.28 270.268 272.184 270.556 272.072C270.86 271.96 271.068 271.856 271.18 271.76H272.356C272.388 271.92 272.404 272.12 272.404 272.36C272.42 272.6 272.436 272.8 272.452 272.96C272.996 272.544 273.58 272.216 274.204 271.976C274.844 271.736 275.444 271.616 276.004 271.616C276.74 271.616 277.348 271.752 277.828 272.024C278.308 272.28 278.692 272.672 278.98 273.2C279.556 272.72 280.188 272.336 280.876 272.048C281.58 271.76 282.252 271.616 282.892 271.616C284.188 271.616 285.164 271.992 285.82 272.744C286.492 273.48 286.828 274.768 286.828 276.608V280.136C286.828 280.36 286.82 280.68 286.804 281.096C286.788 281.496 286.764 281.88 286.732 282.248C286.988 282.216 287.268 282.2 287.572 282.2C287.892 282.184 288.132 282.176 288.292 282.176V284H282.22V282.44C282.588 282.44 282.852 282.352 283.012 282.176C283.188 282 283.3 281.752 283.348 281.432C283.396 281.096 283.42 280.72 283.42 280.304V276.632C283.404 275.592 283.228 274.872 282.892 274.472C282.572 274.072 282.14 273.864 281.596 273.848C281.18 273.832 280.788 273.904 280.42 274.064C280.068 274.224 279.748 274.416 279.46 274.64C279.54 274.96 279.596 275.312 279.628 275.696C279.66 276.08 279.676 276.488 279.676 276.92C279.676 277.464 279.676 278 279.676 278.528C279.676 279.056 279.676 279.592 279.676 280.136C279.676 280.36 279.668 280.68 279.652 281.096C279.636 281.496 279.612 281.88 279.58 282.248C279.836 282.216 280.116 282.2 280.42 282.2C280.724 282.184 280.964 282.176 281.14 282.176V284H274.948V282.44C275.364 282.44 275.66 282.352 275.836 282.176C276.028 282 276.148 281.752 276.196 281.432C276.244 281.096 276.268 280.72 276.268 280.304L276.244 276.56C276.244 275.52 276.092 274.808 275.788 274.424C275.484 274.04 275.06 273.84 274.516 273.824C274.116 273.824 273.74 273.912 273.388 274.088C273.052 274.264 272.748 274.472 272.476 274.712C272.476 274.92 272.476 275.12 272.476 275.312C272.476 275.504 272.476 275.704 272.476 275.912V280.136C272.476 280.36 272.468 280.68 272.452 281.096C272.436 281.496 272.412 281.88 272.38 282.248C272.636 282.216 272.9 282.2 273.172 282.2C273.444 282.184 273.66 282.176 273.82 282.176V284H267.652Z" fill="black"/>
</g>
<rect x="0.5" y="0.5" width="299" height="299" stroke="#878787"/>
<defs>
<clipPath id="clip0_1_3">
<rect width="300" height="300" fill="white"/>
</clipPath>
</defs>
</svg>
