<svg width="300" height="300" viewBox="0 0 300 300" fill="none" xmlns="http://www.w3.org/2000/svg">
<g clip-path="url(#clip0_16_2)">
<rect width="300" height="300" fill="white"/>
<rect width="300" height="300" fill="#CDD9F8"/>
<path d="M64.7036 134.36C63.8876 132.368 63.0716 130.388 62.2556 128.42C61.4636 126.452 60.6596 124.484 59.8436 122.516C59.6516 122.06 59.3996 121.424 59.0876 120.608C58.7996 119.768 58.4876 118.808 58.1516 117.728C57.8396 116.648 57.5516 115.532 57.2876 114.38C57.3356 115.724 57.3716 116.996 57.3956 118.196C57.4196 119.372 57.4196 120.5 57.3956 121.58C57.3956 122.108 57.3956 122.648 57.3956 123.2C57.3956 123.752 57.3836 124.304 57.3596 124.856C57.3596 125.384 57.3596 125.924 57.3596 126.476C57.3596 127.004 57.3596 127.544 57.3596 128.096C57.3596 128.744 57.3356 129.368 57.2876 129.968C57.2636 130.568 57.2276 131.024 57.1796 131.336C57.5876 131.288 58.0796 131.264 58.6556 131.264C59.2556 131.24 59.6756 131.228 59.9156 131.228V134H51.7076V131.624C52.2596 131.6 52.7156 131.528 53.0756 131.408C53.4596 131.288 53.7476 131.012 53.9396 130.58C54.1556 130.148 54.2636 129.452 54.2636 128.492L54.4796 114.704C54.5036 114.056 54.5276 113.432 54.5516 112.832C54.5756 112.232 54.5996 111.776 54.6236 111.464C54.2396 111.488 53.7596 111.512 53.1836 111.536C52.6076 111.536 52.1876 111.548 51.9236 111.572V108.8H59.8796L65.3156 122.732C65.5316 123.284 65.7716 123.932 66.0356 124.676C66.2996 125.396 66.5516 126.104 66.7916 126.8C67.0316 127.472 67.2116 128.012 67.3316 128.42H67.3676C67.6796 127.58 67.9676 126.764 68.2316 125.972C68.4956 125.18 68.7716 124.412 69.0596 123.668C69.9956 121.172 70.9196 118.688 71.8316 116.216C72.7676 113.744 73.7036 111.272 74.6396 108.8H82.9556V111.176C82.4276 111.2 81.9596 111.272 81.5516 111.392C81.1436 111.512 80.8316 111.788 80.6156 112.22C80.4236 112.628 80.3396 113.324 80.3636 114.308L80.9036 128.096C80.9516 128.744 80.9516 129.368 80.9036 129.968C80.8556 130.568 80.8076 131.024 80.7596 131.336C81.1676 131.288 81.6596 131.264 82.2356 131.264C82.8356 131.24 83.2556 131.228 83.4956 131.228V134H73.4876V131.624C74.0396 131.6 74.5076 131.528 74.8916 131.408C75.2996 131.288 75.5996 131.012 75.7916 130.58C76.0076 130.148 76.0916 129.452 76.0436 128.492L75.7556 120.86C75.7556 120.572 75.7316 120.08 75.6836 119.384C75.6356 118.664 75.5876 117.884 75.5396 117.044C75.5156 116.18 75.4916 115.376 75.4676 114.632C75.3956 114.8 75.3236 114.968 75.2516 115.136C75.1796 115.28 75.1196 115.436 75.0716 115.604L68.0516 134.36H64.7036ZM94.4835 134.576C92.7555 134.576 91.1955 134.204 89.8035 133.46C88.4115 132.716 87.3075 131.66 86.4915 130.292C85.6995 128.9 85.3035 127.268 85.3035 125.396C85.3035 123.404 85.7115 121.664 86.5275 120.176C87.3675 118.664 88.4715 117.5 89.8395 116.684C91.2315 115.844 92.7435 115.424 94.3755 115.424C96.1035 115.424 97.6515 115.796 99.0195 116.54C100.388 117.284 101.468 118.352 102.26 119.744C103.052 121.112 103.448 122.756 103.448 124.676C103.448 126.692 103.064 128.444 102.296 129.932C101.528 131.42 100.472 132.572 99.1275 133.388C97.7835 134.18 96.2355 134.576 94.4835 134.576ZM94.6275 132.02C95.5875 131.996 96.3075 131.66 96.7875 131.012C97.2915 130.364 97.6395 129.548 97.8315 128.564C98.0235 127.58 98.1195 126.584 98.1195 125.576C98.1195 124.688 98.0475 123.788 97.9035 122.876C97.7835 121.964 97.5795 121.136 97.2915 120.392C97.0035 119.648 96.6075 119.048 96.1035 118.592C95.6235 118.136 95.0235 117.92 94.3035 117.944C93.3675 117.968 92.6235 118.304 92.0715 118.952C91.5435 119.6 91.1595 120.416 90.9195 121.4C90.7035 122.36 90.5955 123.368 90.5955 124.424C90.5955 125.648 90.7275 126.848 90.9915 128.024C91.2555 129.2 91.6755 130.172 92.2515 130.94C92.8515 131.684 93.6435 132.044 94.6275 132.02ZM106.054 134V131.66C106.726 131.66 107.206 131.528 107.494 131.264C107.782 131 107.962 130.628 108.034 130.148C108.13 129.644 108.178 129.08 108.178 128.456V122.408C108.178 121.976 108.19 121.496 108.214 120.968C108.238 120.416 108.274 119.876 108.322 119.348C107.938 119.372 107.482 119.396 106.954 119.42C106.45 119.42 106.066 119.432 105.802 119.456V116.72C106.906 116.72 107.842 116.66 108.61 116.54C109.378 116.42 109.978 116.276 110.41 116.108C110.866 115.94 111.178 115.784 111.346 115.64H113.11C113.158 115.88 113.182 116.18 113.182 116.54C113.206 116.9 113.23 117.2 113.254 117.44C114.07 116.816 114.946 116.324 115.882 115.964C116.842 115.604 117.742 115.424 118.582 115.424C119.686 115.424 120.598 115.628 121.318 116.036C122.038 116.42 122.614 117.008 123.046 117.8C123.91 117.08 124.858 116.504 125.89 116.072C126.946 115.64 127.954 115.424 128.914 115.424C130.858 115.424 132.322 115.988 133.306 117.116C134.314 118.22 134.818 120.152 134.818 122.912V128.204C134.818 128.54 134.806 129.02 134.782 129.644C134.758 130.244 134.722 130.82 134.674 131.372C135.058 131.324 135.478 131.3 135.934 131.3C136.414 131.276 136.774 131.264 137.014 131.264V134H127.906V131.66C128.458 131.66 128.854 131.528 129.094 131.264C129.358 131 129.526 130.628 129.598 130.148C129.67 129.644 129.706 129.08 129.706 128.456V122.948C129.682 121.388 129.418 120.308 128.914 119.708C128.434 119.108 127.786 118.796 126.97 118.772C126.346 118.748 125.758 118.856 125.206 119.096C124.678 119.336 124.198 119.624 123.766 119.96C123.886 120.44 123.97 120.968 124.018 121.544C124.066 122.12 124.09 122.732 124.09 123.38C124.09 124.196 124.09 125 124.09 125.792C124.09 126.584 124.09 127.388 124.09 128.204C124.09 128.54 124.078 129.02 124.054 129.644C124.03 130.244 123.994 130.82 123.946 131.372C124.33 131.324 124.75 131.3 125.206 131.3C125.662 131.276 126.022 131.264 126.286 131.264V134H116.998V131.66C117.622 131.66 118.066 131.528 118.33 131.264C118.618 131 118.798 130.628 118.87 130.148C118.942 129.644 118.978 129.08 118.978 128.456L118.942 122.84C118.942 121.28 118.714 120.212 118.258 119.636C117.802 119.06 117.166 118.76 116.35 118.736C115.75 118.736 115.186 118.868 114.658 119.132C114.154 119.396 113.698 119.708 113.29 120.068C113.29 120.38 113.29 120.68 113.29 120.968C113.29 121.256 113.29 121.556 113.29 121.868V128.204C113.29 128.54 113.278 129.02 113.254 129.644C113.23 130.244 113.194 130.82 113.146 131.372C113.53 131.324 113.926 131.3 114.334 131.3C114.742 131.276 115.066 131.264 115.306 131.264V134H106.054ZM147.703 134.576C145.951 134.576 144.403 134.192 143.059 133.424C141.715 132.632 140.671 131.528 139.927 130.112C139.183 128.672 138.811 126.98 138.811 125.036C138.811 123.356 139.183 121.784 139.927 120.32C140.671 118.856 141.715 117.68 143.059 116.792C144.427 115.88 146.011 115.424 147.811 115.424C148.819 115.424 149.803 115.568 150.763 115.856C151.723 116.12 152.587 116.588 153.355 117.26C154.147 117.932 154.771 118.844 155.227 119.996C155.707 121.148 155.935 122.588 155.911 124.316L144.103 124.532C144.103 125.828 144.259 126.992 144.571 128.024C144.907 129.056 145.447 129.872 146.191 130.472C146.935 131.072 147.931 131.372 149.179 131.372C149.659 131.372 150.199 131.288 150.799 131.12C151.423 130.952 152.047 130.676 152.671 130.292C153.319 129.884 153.919 129.344 154.471 128.672L156.091 130.184C155.227 131.408 154.303 132.344 153.319 132.992C152.335 133.616 151.351 134.036 150.367 134.252C149.407 134.468 148.519 134.576 147.703 134.576ZM144.319 122.012H150.943C150.919 121.004 150.775 120.212 150.511 119.636C150.271 119.036 149.935 118.604 149.503 118.34C149.071 118.076 148.567 117.944 147.991 117.944C146.935 117.944 146.107 118.328 145.507 119.096C144.907 119.84 144.511 120.812 144.319 122.012ZM158.542 134V131.66C159.214 131.66 159.694 131.528 159.982 131.264C160.27 131 160.45 130.628 160.522 130.148C160.618 129.644 160.666 129.08 160.666 128.456V122.408C160.666 121.976 160.678 121.496 160.702 120.968C160.726 120.416 160.762 119.876 160.81 119.348C160.426 119.372 159.97 119.396 159.442 119.42C158.938 119.42 158.554 119.432 158.29 119.456V116.72C159.394 116.72 160.33 116.66 161.098 116.54C161.866 116.42 162.466 116.276 162.898 116.108C163.354 115.94 163.666 115.784 163.834 115.64H165.598C165.646 115.952 165.67 116.18 165.67 116.324C165.67 116.468 165.67 116.612 165.67 116.756C165.694 116.876 165.742 117.104 165.814 117.44C166.294 117.056 166.846 116.72 167.47 116.432C168.094 116.12 168.718 115.88 169.342 115.712C169.966 115.52 170.518 115.424 170.998 115.424C173.206 115.424 174.766 116.06 175.678 117.332C176.614 118.58 177.082 120.596 177.082 123.38V128.204C177.082 128.54 177.07 129.02 177.046 129.644C177.022 130.244 176.986 130.82 176.938 131.372C177.346 131.324 177.778 131.3 178.234 131.3C178.69 131.276 179.038 131.264 179.278 131.264V134H169.846V131.66C170.518 131.66 170.998 131.528 171.286 131.264C171.598 131 171.79 130.628 171.862 130.148C171.958 129.644 172.006 129.08 172.006 128.456L171.97 123.344C171.97 121.784 171.742 120.632 171.286 119.888C170.854 119.12 170.11 118.736 169.054 118.736C168.454 118.736 167.854 118.868 167.254 119.132C166.678 119.396 166.186 119.708 165.778 120.068C165.778 120.404 165.778 120.752 165.778 121.112C165.778 121.448 165.778 121.784 165.778 122.12V128.204C165.778 128.54 165.766 129.02 165.742 129.644C165.718 130.244 165.682 130.82 165.634 131.372C166.018 131.324 166.438 131.3 166.894 131.3C167.374 131.276 167.734 131.264 167.974 131.264V134H158.542ZM188.346 134.576C187.626 134.576 186.93 134.492 186.258 134.324C185.61 134.156 185.01 133.844 184.458 133.388C183.93 132.908 183.51 132.212 183.198 131.3C182.886 130.388 182.73 129.176 182.73 127.664L182.802 118.988H180.354V116C181.098 115.976 181.818 115.724 182.514 115.244C183.21 114.764 183.798 114.14 184.278 113.372C184.782 112.604 185.118 111.8 185.286 110.96H187.95L187.914 116H192.486V118.772L187.914 118.88L187.878 127.736C187.878 128.288 187.926 128.84 188.022 129.392C188.142 129.92 188.358 130.364 188.67 130.724C188.982 131.06 189.438 131.228 190.038 131.228C190.374 131.228 190.83 131.108 191.406 130.868C192.006 130.628 192.642 130.028 193.314 129.068L195.042 130.688C194.394 131.648 193.722 132.392 193.026 132.92C192.33 133.448 191.658 133.832 191.01 134.072C190.386 134.312 189.834 134.456 189.354 134.504C188.874 134.552 188.538 134.576 188.346 134.576ZM203.541 134.576C202.101 134.576 200.937 134.3 200.049 133.748C199.185 133.196 198.549 132.332 198.141 131.156C197.757 129.98 197.565 128.468 197.565 126.62V122.48C197.565 122.048 197.577 121.556 197.601 121.004C197.625 120.428 197.649 119.876 197.673 119.348C197.289 119.372 196.833 119.396 196.305 119.42C195.801 119.42 195.417 119.432 195.153 119.456V116.72H195.513C197.001 116.72 198.177 116.6 199.041 116.36C199.905 116.12 200.457 115.88 200.697 115.64H202.677V126.656C202.677 128.216 202.881 129.38 203.289 130.148C203.697 130.892 204.345 131.264 205.233 131.264C205.857 131.264 206.481 131.096 207.105 130.76C207.753 130.4 208.281 129.992 208.689 129.536V122.48C208.689 122.048 208.701 121.556 208.725 121.004C208.749 120.428 208.785 119.876 208.833 119.348C208.449 119.372 207.993 119.396 207.465 119.42C206.961 119.42 206.577 119.432 206.313 119.456V116.72H207.177C208.305 116.72 209.301 116.6 210.165 116.36C211.029 116.096 211.581 115.856 211.821 115.64H213.801V128.204C213.801 128.54 213.789 129.02 213.765 129.644C213.741 130.244 213.705 130.82 213.657 131.372C214.041 131.324 214.461 131.3 214.917 131.3C215.397 131.276 215.757 131.264 215.997 131.264V134H209.157C209.133 133.688 209.097 133.376 209.049 133.064C209.025 132.752 208.989 132.44 208.941 132.128C208.197 132.752 207.393 133.316 206.529 133.82C205.689 134.324 204.693 134.576 203.541 134.576ZM218.343 134V131.66C219.015 131.66 219.495 131.528 219.783 131.264C220.071 131 220.251 130.628 220.323 130.148C220.419 129.644 220.467 129.08 220.467 128.456V122.408C220.467 121.976 220.479 121.496 220.503 120.968C220.527 120.416 220.563 119.876 220.611 119.348C220.227 119.372 219.771 119.396 219.243 119.42C218.739 119.42 218.355 119.432 218.091 119.456V116.72C219.195 116.72 220.131 116.66 220.899 116.54C221.667 116.42 222.267 116.276 222.699 116.108C223.155 115.94 223.467 115.784 223.635 115.64H225.399C225.447 115.88 225.471 116.18 225.471 116.54C225.495 116.9 225.519 117.2 225.543 117.44C226.359 116.816 227.235 116.324 228.171 115.964C229.131 115.604 230.031 115.424 230.871 115.424C231.975 115.424 232.887 115.628 233.607 116.036C234.327 116.42 234.903 117.008 235.335 117.8C236.199 117.08 237.147 116.504 238.179 116.072C239.235 115.64 240.243 115.424 241.203 115.424C243.147 115.424 244.611 115.988 245.595 117.116C246.603 118.22 247.107 120.152 247.107 122.912V128.204C247.107 128.54 247.095 129.02 247.071 129.644C247.047 130.244 247.011 130.82 246.963 131.372C247.347 131.324 247.767 131.3 248.223 131.3C248.703 131.276 249.063 131.264 249.303 131.264V134H240.195V131.66C240.747 131.66 241.143 131.528 241.383 131.264C241.647 131 241.815 130.628 241.887 130.148C241.959 129.644 241.995 129.08 241.995 128.456V122.948C241.971 121.388 241.707 120.308 241.203 119.708C240.723 119.108 240.075 118.796 239.259 118.772C238.635 118.748 238.047 118.856 237.495 119.096C236.967 119.336 236.487 119.624 236.055 119.96C236.175 120.44 236.259 120.968 236.307 121.544C236.355 122.12 236.379 122.732 236.379 123.38C236.379 124.196 236.379 125 236.379 125.792C236.379 126.584 236.379 127.388 236.379 128.204C236.379 128.54 236.367 129.02 236.343 129.644C236.319 130.244 236.283 130.82 236.235 131.372C236.619 131.324 237.039 131.3 237.495 131.3C237.951 131.276 238.311 131.264 238.575 131.264V134H229.287V131.66C229.911 131.66 230.355 131.528 230.619 131.264C230.907 131 231.087 130.628 231.159 130.148C231.231 129.644 231.267 129.08 231.267 128.456L231.231 122.84C231.231 121.28 231.003 120.212 230.547 119.636C230.091 119.06 229.455 118.76 228.639 118.736C228.039 118.736 227.475 118.868 226.947 119.132C226.443 119.396 225.987 119.708 225.579 120.068C225.579 120.38 225.579 120.68 225.579 120.968C225.579 121.256 225.579 121.556 225.579 121.868V128.204C225.579 128.54 225.567 129.02 225.543 129.644C225.519 130.244 225.483 130.82 225.435 131.372C225.819 131.324 226.215 131.3 226.623 131.3C227.031 131.276 227.355 131.264 227.595 131.264V134H218.343ZM55.6612 162.864C55.3492 160.872 54.6772 159.372 53.6452 158.364C52.6372 157.356 51.2932 156.84 49.6132 156.816C48.3652 156.816 47.2732 157.104 46.3372 157.68C45.4012 158.256 44.6212 159.024 43.9972 159.984C43.3972 160.944 42.9412 162.036 42.6292 163.26C42.3412 164.484 42.1972 165.744 42.1972 167.04C42.1972 169.104 42.4852 170.94 43.0612 172.548C43.6612 174.132 44.5252 175.38 45.6532 176.292C46.7812 177.204 48.1492 177.66 49.7572 177.66C51.2692 177.66 52.7692 177.276 54.2572 176.508C55.7452 175.716 56.9932 174.624 58.0012 173.232L59.7292 174.816C58.5532 176.424 57.3172 177.648 56.0212 178.488C54.7252 179.304 53.4532 179.856 52.2052 180.144C50.9812 180.432 49.8772 180.576 48.8932 180.576C47.0452 180.576 45.3652 180.252 43.8532 179.604C42.3412 178.932 41.0332 178.02 39.9292 176.868C38.8492 175.692 38.0092 174.336 37.4092 172.8C36.8332 171.24 36.5452 169.56 36.5452 167.76C36.5452 166.128 36.8092 164.508 37.3372 162.9C37.8652 161.292 38.6452 159.84 39.6772 158.544C40.7332 157.224 42.0532 156.18 43.6372 155.412C45.2212 154.62 47.0572 154.224 49.1452 154.224C50.0812 154.224 51.1012 154.38 52.2052 154.692C53.3332 154.98 54.3892 155.412 55.3732 155.988L55.2292 154.476H58.0012V162.864H55.6612ZM60.9703 177.66C61.6423 177.66 62.1223 177.528 62.4103 177.264C62.7223 177 62.9143 176.628 62.9863 176.148C63.0583 175.644 63.0943 175.08 63.0943 174.456V159.66C63.0943 159.228 63.1063 158.736 63.1303 158.184C63.1543 157.608 63.1903 157.056 63.2383 156.528C62.8543 156.552 62.3983 156.576 61.8703 156.6C61.3663 156.6 60.9823 156.612 60.7183 156.636V153.9C61.8463 153.9 62.7823 153.84 63.5263 153.72C64.2943 153.6 64.8943 153.456 65.3263 153.288C65.7823 153.12 66.0943 152.964 66.2623 152.82H68.2063V174.204C68.2063 174.54 68.1943 175.02 68.1703 175.644C68.1463 176.244 68.1103 176.82 68.0623 177.372C68.4703 177.324 68.9023 177.3 69.3583 177.3C69.8143 177.276 70.1623 177.264 70.4023 177.264V180H60.9703V177.66ZM81.5812 180.576C79.8532 180.576 78.2932 180.204 76.9012 179.46C75.5092 178.716 74.4052 177.66 73.5892 176.292C72.7972 174.9 72.4012 173.268 72.4012 171.396C72.4012 169.404 72.8092 167.664 73.6252 166.176C74.4652 164.664 75.5692 163.5 76.9372 162.684C78.3292 161.844 79.8412 161.424 81.4732 161.424C83.2012 161.424 84.7492 161.796 86.1172 162.54C87.4852 163.284 88.5652 164.352 89.3572 165.744C90.1492 167.112 90.5452 168.756 90.5452 170.676C90.5452 172.692 90.1612 174.444 89.3932 175.932C88.6252 177.42 87.5692 178.572 86.2252 179.388C84.8812 180.18 83.3332 180.576 81.5812 180.576ZM81.7252 178.02C82.6852 177.996 83.4052 177.66 83.8852 177.012C84.3892 176.364 84.7372 175.548 84.9292 174.564C85.1212 173.58 85.2172 172.584 85.2172 171.576C85.2172 170.688 85.1452 169.788 85.0012 168.876C84.8812 167.964 84.6772 167.136 84.3892 166.392C84.1012 165.648 83.7052 165.048 83.2012 164.592C82.7212 164.136 82.1212 163.92 81.4012 163.944C80.4652 163.968 79.7212 164.304 79.1692 164.952C78.6412 165.6 78.2572 166.416 78.0172 167.4C77.8012 168.36 77.6932 169.368 77.6932 170.424C77.6932 171.648 77.8252 172.848 78.0892 174.024C78.3532 175.2 78.7732 176.172 79.3492 176.94C79.9492 177.684 80.7412 178.044 81.7252 178.02ZM93.1518 180V177.66C93.8238 177.66 94.3038 177.528 94.5918 177.264C94.8798 177 95.0598 176.628 95.1318 176.148C95.2278 175.644 95.2758 175.08 95.2758 174.456V168.408C95.2758 167.976 95.2878 167.496 95.3118 166.968C95.3358 166.416 95.3718 165.876 95.4198 165.348C95.0358 165.372 94.5798 165.396 94.0518 165.42C93.5478 165.42 93.1638 165.432 92.8998 165.456V162.72C94.0038 162.72 94.9398 162.66 95.7078 162.54C96.4758 162.42 97.0758 162.276 97.5078 162.108C97.9638 161.94 98.2758 161.784 98.4438 161.64H100.208C100.256 161.952 100.28 162.18 100.28 162.324C100.28 162.468 100.28 162.612 100.28 162.756C100.304 162.876 100.352 163.104 100.424 163.44C100.904 163.056 101.456 162.72 102.08 162.432C102.704 162.12 103.328 161.88 103.952 161.712C104.576 161.52 105.128 161.424 105.608 161.424C107.816 161.424 109.376 162.06 110.288 163.332C111.224 164.58 111.692 166.596 111.692 169.38V174.204C111.692 174.54 111.68 175.02 111.656 175.644C111.632 176.244 111.596 176.82 111.548 177.372C111.956 177.324 112.388 177.3 112.844 177.3C113.3 177.276 113.648 177.264 113.888 177.264V180H104.456V177.66C105.128 177.66 105.608 177.528 105.896 177.264C106.208 177 106.4 176.628 106.472 176.148C106.568 175.644 106.616 175.08 106.616 174.456L106.58 169.344C106.58 167.784 106.352 166.632 105.896 165.888C105.464 165.12 104.72 164.736 103.664 164.736C103.064 164.736 102.464 164.868 101.864 165.132C101.288 165.396 100.796 165.708 100.388 166.068C100.388 166.404 100.388 166.752 100.388 167.112C100.388 167.448 100.388 167.784 100.388 168.12V174.204C100.388 174.54 100.376 175.02 100.352 175.644C100.328 176.244 100.292 176.82 100.244 177.372C100.628 177.324 101.048 177.3 101.504 177.3C101.984 177.276 102.344 177.264 102.584 177.264V180H93.1518ZM124.571 180.576C122.819 180.576 121.271 180.192 119.927 179.424C118.583 178.632 117.539 177.528 116.795 176.112C116.051 174.672 115.679 172.98 115.679 171.036C115.679 169.356 116.051 167.784 116.795 166.32C117.539 164.856 118.583 163.68 119.927 162.792C121.295 161.88 122.879 161.424 124.679 161.424C125.687 161.424 126.671 161.568 127.631 161.856C128.591 162.12 129.455 162.588 130.223 163.26C131.015 163.932 131.639 164.844 132.095 165.996C132.575 167.148 132.803 168.588 132.779 170.316L120.971 170.532C120.971 171.828 121.127 172.992 121.439 174.024C121.775 175.056 122.315 175.872 123.059 176.472C123.803 177.072 124.799 177.372 126.047 177.372C126.527 177.372 127.067 177.288 127.667 177.12C128.291 176.952 128.915 176.676 129.539 176.292C130.187 175.884 130.787 175.344 131.339 174.672L132.959 176.184C132.095 177.408 131.171 178.344 130.187 178.992C129.203 179.616 128.219 180.036 127.235 180.252C126.275 180.468 125.387 180.576 124.571 180.576ZM121.187 168.012H127.811C127.787 167.004 127.643 166.212 127.379 165.636C127.139 165.036 126.803 164.604 126.371 164.34C125.939 164.076 125.435 163.944 124.859 163.944C123.803 163.944 122.975 164.328 122.375 165.096C121.775 165.84 121.379 166.812 121.187 168.012ZM163.767 162.864C163.455 160.872 162.783 159.372 161.751 158.364C160.743 157.356 159.399 156.84 157.719 156.816C156.471 156.816 155.379 157.104 154.443 157.68C153.507 158.256 152.727 159.024 152.103 159.984C151.503 160.944 151.047 162.036 150.735 163.26C150.447 164.484 150.303 165.744 150.303 167.04C150.303 169.104 150.591 170.94 151.167 172.548C151.767 174.132 152.631 175.38 153.759 176.292C154.887 177.204 156.255 177.66 157.863 177.66C159.375 177.66 160.875 177.276 162.363 176.508C163.851 175.716 165.099 174.624 166.107 173.232L167.835 174.816C166.659 176.424 165.423 177.648 164.127 178.488C162.831 179.304 161.559 179.856 160.311 180.144C159.087 180.432 157.983 180.576 156.999 180.576C155.151 180.576 153.471 180.252 151.959 179.604C150.447 178.932 149.139 178.02 148.035 176.868C146.955 175.692 146.115 174.336 145.515 172.8C144.939 171.24 144.651 169.56 144.651 167.76C144.651 166.128 144.915 164.508 145.443 162.9C145.971 161.292 146.751 159.84 147.783 158.544C148.839 157.224 150.159 156.18 151.743 155.412C153.327 154.62 155.163 154.224 157.251 154.224C158.187 154.224 159.207 154.38 160.311 154.692C161.439 154.98 162.495 155.412 163.479 155.988L163.335 154.476H166.107V162.864H163.767ZM178.472 180.576C176.744 180.576 175.184 180.204 173.792 179.46C172.4 178.716 171.296 177.66 170.48 176.292C169.688 174.9 169.292 173.268 169.292 171.396C169.292 169.404 169.7 167.664 170.516 166.176C171.356 164.664 172.46 163.5 173.828 162.684C175.22 161.844 176.732 161.424 178.364 161.424C180.092 161.424 181.64 161.796 183.008 162.54C184.376 163.284 185.456 164.352 186.248 165.744C187.04 167.112 187.436 168.756 187.436 170.676C187.436 172.692 187.052 174.444 186.284 175.932C185.516 177.42 184.46 178.572 183.116 179.388C181.772 180.18 180.224 180.576 178.472 180.576ZM178.616 178.02C179.576 177.996 180.296 177.66 180.776 177.012C181.28 176.364 181.628 175.548 181.82 174.564C182.012 173.58 182.108 172.584 182.108 171.576C182.108 170.688 182.036 169.788 181.892 168.876C181.772 167.964 181.568 167.136 181.28 166.392C180.992 165.648 180.596 165.048 180.092 164.592C179.612 164.136 179.012 163.92 178.292 163.944C177.356 163.968 176.612 164.304 176.06 164.952C175.532 165.6 175.148 166.416 174.908 167.4C174.692 168.36 174.584 169.368 174.584 170.424C174.584 171.648 174.716 172.848 174.98 174.024C175.244 175.2 175.664 176.172 176.24 176.94C176.84 177.684 177.632 178.044 178.616 178.02ZM196.99 180.576C195.55 180.576 194.278 180.204 193.174 179.46C192.094 178.716 191.242 177.66 190.618 176.292C190.018 174.924 189.718 173.316 189.718 171.468C189.718 169.524 190.09 167.796 190.834 166.284C191.578 164.772 192.622 163.584 193.966 162.72C195.31 161.856 196.87 161.424 198.646 161.424C199.294 161.424 199.87 161.496 200.374 161.64C200.902 161.76 201.394 161.904 201.85 162.072V159.696C201.85 159.36 201.862 158.88 201.886 158.256C201.91 157.632 201.946 157.056 201.994 156.528C201.61 156.552 201.154 156.576 200.626 156.6C200.098 156.624 199.702 156.636 199.438 156.636V153.9C200.566 153.9 201.502 153.84 202.246 153.72C203.014 153.6 203.614 153.456 204.046 153.288C204.502 153.12 204.814 152.964 204.982 152.82H206.926V174.204C206.926 174.54 206.914 175.02 206.89 175.644C206.866 176.244 206.83 176.82 206.782 177.372C207.19 177.324 207.622 177.3 208.078 177.3C208.534 177.276 208.882 177.264 209.122 177.264V180H202.282C202.258 179.736 202.222 179.46 202.174 179.172C202.15 178.884 202.114 178.608 202.066 178.344C201.274 179.16 200.458 179.736 199.618 180.072C198.778 180.408 197.902 180.576 196.99 180.576ZM198.862 177.3C199.486 177.3 200.062 177.144 200.59 176.832C201.118 176.496 201.538 176.076 201.85 175.572C201.85 175.212 201.85 174.852 201.85 174.492C201.85 174.132 201.85 173.772 201.85 173.412V164.772C201.61 164.58 201.25 164.424 200.77 164.304C200.29 164.16 199.798 164.088 199.294 164.088C198.19 164.112 197.326 164.46 196.702 165.132C196.078 165.804 195.634 166.656 195.37 167.688C195.13 168.72 195.01 169.8 195.01 170.928C195.01 171.936 195.13 172.932 195.37 173.916C195.634 174.9 196.042 175.716 196.594 176.364C197.17 176.988 197.926 177.3 198.862 177.3ZM211.488 177.66C212.16 177.66 212.64 177.528 212.928 177.264C213.216 177 213.396 176.628 213.468 176.148C213.564 175.644 213.612 175.08 213.612 174.456V168.48C213.612 168.048 213.624 167.556 213.648 167.004C213.672 166.428 213.708 165.876 213.756 165.348C213.372 165.372 212.916 165.396 212.388 165.42C211.884 165.42 211.5 165.432 211.236 165.456V162.72C212.34 162.72 213.276 162.66 214.044 162.54C214.812 162.42 215.412 162.276 215.844 162.108C216.3 161.94 216.612 161.784 216.78 161.64H218.724V174.204C218.724 174.54 218.712 175.02 218.688 175.644C218.664 176.244 218.628 176.82 218.58 177.372C218.964 177.324 219.384 177.3 219.84 177.3C220.32 177.276 220.68 177.264 220.92 177.264V180H211.488V177.66ZM215.988 158.796C215.172 158.796 214.5 158.508 213.972 157.932C213.444 157.356 213.18 156.66 213.18 155.844C213.18 155.028 213.456 154.332 214.008 153.756C214.56 153.18 215.208 152.892 215.952 152.892C216.72 152.892 217.356 153.18 217.86 153.756C218.388 154.332 218.652 155.028 218.652 155.844C218.652 156.66 218.412 157.356 217.932 157.932C217.452 158.508 216.804 158.796 215.988 158.796ZM223.265 180V177.66C223.937 177.66 224.417 177.528 224.705 177.264C224.993 177 225.173 176.628 225.245 176.148C225.341 175.644 225.389 175.08 225.389 174.456V168.408C225.389 167.976 225.401 167.496 225.425 166.968C225.449 166.416 225.485 165.876 225.533 165.348C225.149 165.372 224.693 165.396 224.165 165.42C223.661 165.42 223.277 165.432 223.013 165.456V162.72C224.117 162.72 225.053 162.66 225.821 162.54C226.589 162.42 227.189 162.276 227.621 162.108C228.077 161.94 228.389 161.784 228.557 161.64H230.321C230.369 161.952 230.393 162.18 230.393 162.324C230.393 162.468 230.393 162.612 230.393 162.756C230.417 162.876 230.465 163.104 230.537 163.44C231.017 163.056 231.569 162.72 232.193 162.432C232.817 162.12 233.441 161.88 234.065 161.712C234.689 161.52 235.241 161.424 235.721 161.424C237.929 161.424 239.489 162.06 240.401 163.332C241.337 164.58 241.805 166.596 241.805 169.38V174.204C241.805 174.54 241.793 175.02 241.769 175.644C241.745 176.244 241.709 176.82 241.661 177.372C242.069 177.324 242.501 177.3 242.957 177.3C243.413 177.276 243.761 177.264 244.001 177.264V180H234.569V177.66C235.241 177.66 235.721 177.528 236.009 177.264C236.321 177 236.513 176.628 236.585 176.148C236.681 175.644 236.729 175.08 236.729 174.456L236.693 169.344C236.693 167.784 236.465 166.632 236.009 165.888C235.577 165.12 234.833 164.736 233.777 164.736C233.177 164.736 232.577 164.868 231.977 165.132C231.401 165.396 230.909 165.708 230.501 166.068C230.501 166.404 230.501 166.752 230.501 167.112C230.501 167.448 230.501 167.784 230.501 168.12V174.204C230.501 174.54 230.489 175.02 230.465 175.644C230.441 176.244 230.405 176.82 230.357 177.372C230.741 177.324 231.161 177.3 231.617 177.3C232.097 177.276 232.457 177.264 232.697 177.264V180H223.265ZM253.892 189.756C251.828 189.756 250.196 189.528 248.996 189.072C247.796 188.64 246.944 188.064 246.44 187.344C245.936 186.624 245.684 185.856 245.684 185.04C245.684 184.536 245.792 184.032 246.008 183.528C246.224 183.024 246.572 182.532 247.052 182.052C247.556 181.596 248.24 181.212 249.104 180.9C248.12 180.636 247.424 180.216 247.016 179.64C246.632 179.04 246.44 178.404 246.44 177.732C246.44 177.108 246.692 176.412 247.196 175.644C247.7 174.852 248.612 174.252 249.932 173.844C248.924 173.436 248.096 172.8 247.448 171.936C246.8 171.072 246.452 170.028 246.404 168.804C246.356 167.364 246.716 166.092 247.484 164.988C248.252 163.86 249.26 162.984 250.508 162.36C251.756 161.736 253.064 161.424 254.432 161.424C255.056 161.424 255.776 161.508 256.592 161.676C257.408 161.844 258.116 162.132 258.716 162.54C258.98 161.796 259.316 161.1 259.724 160.452C260.156 159.78 260.672 159.24 261.272 158.832C261.872 158.4 262.544 158.184 263.288 158.184C264.104 158.184 264.716 158.4 265.124 158.832C265.556 159.24 265.772 159.792 265.772 160.488C265.772 160.776 265.7 161.1 265.556 161.46C265.436 161.796 265.208 162.084 264.872 162.324C264.56 162.564 264.116 162.684 263.54 162.684C263.18 162.684 262.82 162.552 262.46 162.288C262.1 162 261.884 161.664 261.812 161.28C261.5 161.376 261.188 161.688 260.876 162.216C260.564 162.744 260.384 163.212 260.336 163.62C261.032 164.22 261.56 164.916 261.92 165.708C262.28 166.5 262.46 167.352 262.46 168.264C262.46 169.656 262.064 170.892 261.272 171.972C260.504 173.028 259.496 173.868 258.248 174.492C257.024 175.092 255.704 175.392 254.288 175.392C253.976 175.392 253.628 175.38 253.244 175.356C252.86 175.308 252.488 175.284 252.128 175.284C251.6 175.284 251.156 175.38 250.796 175.572C250.436 175.764 250.256 176.028 250.256 176.364C250.256 176.82 250.604 177.132 251.3 177.3C251.996 177.468 253.184 177.6 254.864 177.696C256.712 177.792 258.32 178.032 259.688 178.416C261.08 178.776 262.16 179.352 262.928 180.144C263.696 180.936 264.08 182.028 264.08 183.42C264.08 184.452 263.78 185.352 263.18 186.12C262.58 186.912 261.776 187.572 260.768 188.1C259.784 188.652 258.692 189.06 257.492 189.324C256.292 189.612 255.092 189.756 253.892 189.756ZM254.936 187.272C256.64 187.272 257.924 186.96 258.788 186.336C259.676 185.712 260.12 185.064 260.12 184.392C260.12 183.888 259.928 183.468 259.544 183.132C259.16 182.82 258.584 182.568 257.816 182.376C257.072 182.184 256.112 182.064 254.936 182.016C254.408 181.968 253.796 181.932 253.1 181.908C252.404 181.884 251.792 181.824 251.264 181.728C250.904 182.016 250.628 182.376 250.436 182.808C250.244 183.24 250.136 183.66 250.112 184.068C250.064 185.028 250.472 185.796 251.336 186.372C252.224 186.972 253.424 187.272 254.936 187.272ZM254.432 172.98C255.08 172.98 255.62 172.776 256.052 172.368C256.508 171.96 256.844 171.444 257.06 170.82C257.3 170.196 257.42 169.56 257.42 168.912C257.42 168.072 257.312 167.268 257.096 166.5C256.88 165.708 256.544 165.072 256.088 164.592C255.656 164.088 255.092 163.836 254.396 163.836C253.436 163.836 252.692 164.268 252.164 165.132C251.636 165.996 251.372 166.98 251.372 168.084C251.372 168.924 251.492 169.728 251.732 170.496C251.972 171.24 252.32 171.84 252.776 172.296C253.232 172.752 253.784 172.98 254.432 172.98Z" fill="black"/>
<path d="M187.08 291.12V289.56C187.528 289.56 187.848 289.472 188.04 289.296C188.248 289.12 188.376 288.864 188.424 288.528C188.488 288.208 188.52 287.84 188.52 287.424V277.272C188.52 276.984 188.528 276.664 188.544 276.312C188.56 275.944 188.584 275.584 188.616 275.232C188.36 275.248 188.056 275.264 187.704 275.28C187.352 275.28 187.088 275.288 186.912 275.304V273.48C187.664 273.48 188.288 273.44 188.784 273.36C189.296 273.28 189.696 273.184 189.984 273.072C190.288 272.96 190.496 272.856 190.608 272.76H191.784C191.816 272.92 191.84 273.12 191.856 273.36C191.872 273.584 191.888 273.768 191.904 273.912C192.464 273.432 193.016 273.096 193.56 272.904C194.12 272.712 194.648 272.616 195.144 272.616C196.104 272.616 196.944 272.864 197.664 273.36C198.4 273.856 198.968 274.56 199.368 275.472C199.784 276.384 199.992 277.456 199.992 278.688C199.992 279.968 199.744 281.12 199.248 282.144C198.752 283.152 198.056 283.944 197.16 284.52C196.28 285.096 195.24 285.384 194.04 285.384C193.608 285.384 193.216 285.336 192.864 285.24C192.528 285.16 192.208 285.064 191.904 284.952V287.256C191.904 287.48 191.896 287.792 191.88 288.192C191.88 288.608 191.864 289 191.832 289.368C192.088 289.336 192.368 289.312 192.672 289.296C192.976 289.296 193.208 289.296 193.368 289.296V291.12H187.08ZM193.656 283.584C194.392 283.568 194.96 283.352 195.36 282.936C195.776 282.504 196.064 281.944 196.224 281.256C196.384 280.568 196.464 279.832 196.464 279.048C196.464 278.312 196.376 277.616 196.2 276.96C196.024 276.304 195.744 275.776 195.36 275.376C194.976 274.96 194.472 274.76 193.848 274.776C193.448 274.792 193.08 274.896 192.744 275.088C192.408 275.264 192.128 275.512 191.904 275.832C191.904 276.328 191.904 276.824 191.904 277.32C191.904 277.8 191.904 278.28 191.904 278.76C191.904 279.24 191.904 279.728 191.904 280.224C191.904 280.704 191.904 281.192 191.904 281.688C191.904 282.168 191.904 282.656 191.904 283.152C192.08 283.264 192.328 283.368 192.648 283.464C192.968 283.56 193.304 283.6 193.656 283.584ZM207.422 285.384C206.254 285.384 205.222 285.128 204.326 284.616C203.43 284.088 202.734 283.352 202.238 282.408C201.742 281.448 201.494 280.32 201.494 279.024C201.494 277.904 201.742 276.856 202.238 275.88C202.734 274.904 203.43 274.12 204.326 273.528C205.238 272.92 206.294 272.616 207.494 272.616C208.166 272.616 208.822 272.712 209.462 272.904C210.102 273.08 210.678 273.392 211.19 273.84C211.718 274.288 212.134 274.896 212.438 275.664C212.758 276.432 212.91 277.392 212.894 278.544L205.022 278.688C205.022 279.552 205.126 280.328 205.334 281.016C205.558 281.704 205.918 282.248 206.414 282.648C206.91 283.048 207.574 283.248 208.406 283.248C208.726 283.248 209.086 283.192 209.486 283.08C209.902 282.968 210.318 282.784 210.734 282.528C211.166 282.256 211.566 281.896 211.934 281.448L213.014 282.456C212.438 283.272 211.822 283.896 211.166 284.328C210.51 284.744 209.854 285.024 209.198 285.168C208.558 285.312 207.966 285.384 207.422 285.384ZM205.166 277.008H209.582C209.566 276.336 209.47 275.808 209.294 275.424C209.134 275.024 208.91 274.736 208.622 274.56C208.334 274.384 207.998 274.296 207.614 274.296C206.91 274.296 206.358 274.552 205.958 275.064C205.558 275.56 205.294 276.208 205.166 277.008ZM214.648 283.44C215.096 283.44 215.416 283.352 215.608 283.176C215.8 283 215.92 282.752 215.968 282.432C216.032 282.096 216.064 281.72 216.064 281.304V277.272C216.064 276.984 216.072 276.664 216.088 276.312C216.104 275.944 216.128 275.584 216.16 275.232C215.904 275.248 215.6 275.264 215.248 275.28C214.912 275.28 214.656 275.288 214.48 275.304V273.48H215.44C216.064 273.48 216.632 273.4 217.144 273.24C217.672 273.08 218.016 272.92 218.176 272.76H219.352C219.384 272.92 219.408 273.224 219.424 273.672C219.44 274.104 219.448 274.488 219.448 274.824C219.88 274.296 220.288 273.872 220.672 273.552C221.056 273.232 221.432 273 221.8 272.856C222.184 272.696 222.568 272.616 222.952 272.616C223.512 272.616 224 272.776 224.416 273.096C224.832 273.4 225.04 273.904 225.04 274.608C225.04 274.848 224.984 275.104 224.872 275.376C224.76 275.632 224.584 275.848 224.344 276.024C224.104 276.2 223.776 276.288 223.36 276.288C223.04 276.288 222.712 276.192 222.376 276C222.04 275.808 221.848 275.44 221.8 274.896C221.48 274.896 221.16 275.032 220.84 275.304C220.52 275.56 220.232 275.872 219.976 276.24C219.736 276.592 219.568 276.92 219.472 277.224V281.136C219.472 281.36 219.464 281.68 219.448 282.096C219.432 282.496 219.408 282.88 219.376 283.248C219.632 283.216 219.912 283.2 220.216 283.2C220.536 283.184 220.776 283.176 220.936 283.176V285H214.648V283.44ZM231.606 285.384C230.918 285.384 230.246 285.296 229.59 285.12C228.934 284.944 228.422 284.72 228.054 284.448L228.102 285.168H226.278L226.182 281.04H227.742C227.79 281.52 227.982 281.96 228.318 282.36C228.654 282.76 229.094 283.08 229.638 283.32C230.182 283.544 230.79 283.656 231.462 283.656C231.734 283.656 231.99 283.616 232.23 283.536C232.486 283.456 232.694 283.328 232.854 283.152C233.03 282.96 233.118 282.728 233.118 282.456C233.118 282.152 233.006 281.904 232.782 281.712C232.574 281.52 232.262 281.336 231.846 281.16C231.446 280.984 230.942 280.784 230.334 280.56C229.838 280.368 229.334 280.168 228.822 279.96C228.326 279.752 227.862 279.504 227.43 279.216C227.014 278.912 226.678 278.544 226.422 278.112C226.166 277.664 226.038 277.12 226.038 276.48C226.038 276.016 226.126 275.56 226.302 275.112C226.478 274.648 226.75 274.232 227.118 273.864C227.486 273.48 227.95 273.176 228.51 272.952C229.086 272.728 229.766 272.616 230.55 272.616C230.982 272.616 231.47 272.688 232.014 272.832C232.574 272.96 233.046 273.16 233.43 273.432V272.736H235.254V276.984H233.694C233.598 276.424 233.398 275.944 233.094 275.544C232.806 275.144 232.43 274.84 231.966 274.632C231.502 274.408 230.982 274.296 230.406 274.296C230.006 274.296 229.638 274.392 229.302 274.584C228.982 274.776 228.822 275.104 228.822 275.568C228.822 275.936 228.95 276.232 229.206 276.456C229.462 276.664 229.814 276.84 230.262 276.984C230.71 277.128 231.206 277.296 231.75 277.488C232.566 277.76 233.286 278.08 233.91 278.448C234.55 278.816 235.054 279.264 235.422 279.792C235.79 280.304 235.974 280.936 235.974 281.688C235.974 282.52 235.766 283.208 235.35 283.752C234.934 284.296 234.39 284.704 233.718 284.976C233.062 285.248 232.358 285.384 231.606 285.384ZM243.614 285.384C242.462 285.384 241.422 285.136 240.494 284.64C239.566 284.144 238.83 283.44 238.286 282.528C237.758 281.6 237.494 280.512 237.494 279.264C237.494 277.936 237.766 276.776 238.31 275.784C238.87 274.776 239.606 274 240.518 273.456C241.446 272.896 242.454 272.616 243.542 272.616C244.694 272.616 245.726 272.864 246.638 273.36C247.55 273.856 248.27 274.568 248.798 275.496C249.326 276.408 249.59 277.504 249.59 278.784C249.59 280.128 249.334 281.296 248.822 282.288C248.31 283.28 247.606 284.048 246.71 284.592C245.814 285.12 244.782 285.384 243.614 285.384ZM243.71 283.68C244.35 283.664 244.83 283.44 245.15 283.008C245.486 282.576 245.718 282.032 245.846 281.376C245.974 280.72 246.038 280.056 246.038 279.384C246.038 278.792 245.99 278.192 245.894 277.584C245.814 276.976 245.678 276.424 245.486 275.928C245.294 275.432 245.03 275.032 244.694 274.728C244.374 274.424 243.974 274.28 243.494 274.296C242.87 274.312 242.374 274.536 242.006 274.968C241.654 275.4 241.398 275.944 241.238 276.6C241.094 277.24 241.022 277.912 241.022 278.616C241.022 279.432 241.11 280.232 241.286 281.016C241.462 281.8 241.742 282.448 242.126 282.96C242.526 283.456 243.054 283.696 243.71 283.68ZM251.328 285V283.44C251.776 283.44 252.096 283.352 252.288 283.176C252.48 283 252.6 282.752 252.648 282.432C252.712 282.096 252.744 281.72 252.744 281.304V277.272C252.744 276.984 252.752 276.664 252.768 276.312C252.784 275.944 252.808 275.584 252.84 275.232C252.584 275.248 252.28 275.264 251.928 275.28C251.592 275.28 251.336 275.288 251.16 275.304V273.48C251.896 273.48 252.52 273.44 253.032 273.36C253.544 273.28 253.944 273.184 254.232 273.072C254.536 272.96 254.744 272.856 254.856 272.76H256.032C256.064 272.968 256.08 273.12 256.08 273.216C256.08 273.312 256.08 273.408 256.08 273.504C256.096 273.584 256.128 273.736 256.176 273.96C256.496 273.704 256.864 273.48 257.28 273.288C257.696 273.08 258.112 272.92 258.528 272.808C258.944 272.68 259.312 272.616 259.632 272.616C261.104 272.616 262.144 273.04 262.752 273.888C263.376 274.72 263.688 276.064 263.688 277.92V281.136C263.688 281.36 263.68 281.68 263.664 282.096C263.648 282.496 263.624 282.88 263.592 283.248C263.864 283.216 264.152 283.2 264.456 283.2C264.76 283.184 264.992 283.176 265.152 283.176V285H258.864V283.44C259.312 283.44 259.632 283.352 259.824 283.176C260.032 283 260.16 282.752 260.208 282.432C260.272 282.096 260.304 281.72 260.304 281.304L260.28 277.896C260.28 276.856 260.128 276.088 259.824 275.592C259.536 275.08 259.04 274.824 258.336 274.824C257.936 274.824 257.536 274.912 257.136 275.088C256.752 275.264 256.424 275.472 256.152 275.712C256.152 275.936 256.152 276.168 256.152 276.408C256.152 276.632 256.152 276.856 256.152 277.08V281.136C256.152 281.36 256.144 281.68 256.128 282.096C256.112 282.496 256.088 282.88 256.056 283.248C256.312 283.216 256.592 283.2 256.896 283.2C257.216 283.184 257.456 283.176 257.616 283.176V285H251.328ZM273.258 285C273.226 284.776 273.202 284.592 273.186 284.448C273.186 284.288 273.178 284.104 273.162 283.896C272.618 284.44 272.042 284.824 271.434 285.048C270.826 285.272 270.21 285.384 269.586 285.384C268.562 285.384 267.762 285.08 267.186 284.472C266.61 283.864 266.322 283.104 266.322 282.192C266.322 281.424 266.514 280.768 266.898 280.224C267.298 279.68 267.818 279.24 268.458 278.904C269.114 278.552 269.834 278.288 270.618 278.112C271.418 277.92 272.218 277.808 273.018 277.776V276.528C273.018 276.112 272.962 275.736 272.85 275.4C272.754 275.064 272.578 274.8 272.322 274.608C272.082 274.416 271.738 274.328 271.29 274.344C270.986 274.36 270.69 274.424 270.402 274.536C270.114 274.648 269.866 274.808 269.658 275.016C269.786 275.16 269.866 275.32 269.898 275.496C269.93 275.656 269.946 275.8 269.946 275.928C269.946 276.248 269.818 276.584 269.562 276.936C269.306 277.272 268.898 277.432 268.338 277.416C267.858 277.4 267.49 277.232 267.234 276.912C266.978 276.592 266.85 276.216 266.85 275.784C266.85 275.144 267.074 274.592 267.522 274.128C267.986 273.648 268.602 273.28 269.37 273.024C270.138 272.752 270.986 272.616 271.914 272.616C273.322 272.616 274.41 272.984 275.178 273.72C275.962 274.44 276.354 275.6 276.354 277.2C276.354 277.744 276.354 278.208 276.354 278.592C276.354 278.976 276.346 279.36 276.33 279.744C276.33 280.128 276.33 280.592 276.33 281.136C276.33 281.36 276.322 281.68 276.306 282.096C276.29 282.496 276.266 282.88 276.234 283.248C276.506 283.216 276.794 283.2 277.098 283.2C277.402 283.184 277.634 283.176 277.794 283.176V285H273.258ZM272.994 279.48C272.546 279.528 272.122 279.608 271.722 279.72C271.322 279.832 270.97 279.984 270.666 280.176C270.378 280.368 270.146 280.6 269.97 280.872C269.81 281.144 269.73 281.448 269.73 281.784C269.746 282.232 269.89 282.552 270.162 282.744C270.434 282.936 270.746 283.032 271.098 283.032C271.466 283.032 271.81 282.952 272.13 282.792C272.45 282.632 272.738 282.424 272.994 282.168C272.994 282.008 272.994 281.856 272.994 281.712C272.994 281.552 272.994 281.392 272.994 281.232C272.994 280.944 272.994 280.656 272.994 280.368C272.994 280.064 272.994 279.768 272.994 279.48ZM278.788 283.44C279.236 283.44 279.556 283.352 279.748 283.176C279.956 283 280.084 282.752 280.132 282.432C280.18 282.096 280.204 281.72 280.204 281.304V271.44C280.204 271.152 280.212 270.824 280.228 270.456C280.244 270.072 280.268 269.704 280.3 269.352C280.044 269.368 279.74 269.384 279.388 269.4C279.052 269.4 278.796 269.408 278.62 269.424V267.6C279.372 267.6 279.996 267.56 280.492 267.48C281.004 267.4 281.404 267.304 281.692 267.192C281.996 267.08 282.204 266.976 282.316 266.88H283.612V281.136C283.612 281.36 283.604 281.68 283.588 282.096C283.572 282.496 283.548 282.88 283.516 283.248C283.788 283.216 284.076 283.2 284.38 283.2C284.684 283.184 284.916 283.176 285.076 283.176V285H278.788V283.44Z" fill="black"/>
</g>
<rect x="0.5" y="0.5" width="299" height="299" stroke="#878787"/>
<defs>
<clipPath id="clip0_16_2">
<rect width="300" height="300" fill="white"/>
</clipPath>
</defs>
</svg>
